<mxfile host="app.diagrams.net" modified="2023-12-21T16:01:32.862Z" agent="Mozilla/5.0 (Windows NT 10.0; Win64; x64) AppleWebKit/537.36 (KHTML, like Gecko) Chrome/120.0.0.0 Safari/537.36" etag="KunAx6aI8Uj66resCniN" version="22.1.11" type="google">
  <diagram name="第 1 页" id="rb8cX3svxsv5wLVZv8kx">
    <mxGraphModel grid="0" page="0" gridSize="10" guides="1" tooltips="1" connect="1" arrows="1" fold="1" pageScale="1" pageWidth="827" pageHeight="1169" math="0" shadow="0">
      <root>
        <mxCell id="0" />
        <mxCell id="1" parent="0" />
        <mxCell id="JQ-ArIc0KbyQgQhtLHyV-1" value="用戶" style="rounded=1;whiteSpace=wrap;html=1;fontSize=16;" vertex="1" parent="1">
          <mxGeometry x="257" y="260" width="105" height="33" as="geometry" />
        </mxCell>
        <mxCell id="JQ-ArIc0KbyQgQhtLHyV-2" value="" style="ellipse;whiteSpace=wrap;html=1;fontSize=16;rotation=60;" vertex="1" parent="1">
          <mxGeometry x="-52" y="89" width="82" height="63" as="geometry" />
        </mxCell>
        <mxCell id="JQ-ArIc0KbyQgQhtLHyV-3" value="" style="ellipse;whiteSpace=wrap;html=1;fontSize=16;rotation=75;" vertex="1" parent="1">
          <mxGeometry x="5" y="35" width="82" height="63" as="geometry" />
        </mxCell>
        <mxCell id="JQ-ArIc0KbyQgQhtLHyV-4" value="" style="ellipse;whiteSpace=wrap;html=1;fontSize=16;rotation=90;" vertex="1" parent="1">
          <mxGeometry x="245" y="-60" width="82" height="63" as="geometry" />
        </mxCell>
        <mxCell id="JQ-ArIc0KbyQgQhtLHyV-5" value="" style="ellipse;whiteSpace=wrap;html=1;fontSize=16;rotation=75;" vertex="1" parent="1">
          <mxGeometry x="163" y="-35" width="82" height="63" as="geometry" />
        </mxCell>
        <mxCell id="JQ-ArIc0KbyQgQhtLHyV-6" value="" style="ellipse;whiteSpace=wrap;html=1;fontSize=16;rotation=75;" vertex="1" parent="1">
          <mxGeometry x="81" y="-6" width="82" height="63" as="geometry" />
        </mxCell>
        <mxCell id="JQ-ArIc0KbyQgQhtLHyV-7" value="" style="ellipse;whiteSpace=wrap;html=1;fontSize=16;rotation=105;" vertex="1" parent="1">
          <mxGeometry x="418" y="-6" width="82" height="63" as="geometry" />
        </mxCell>
        <mxCell id="JQ-ArIc0KbyQgQhtLHyV-8" value="" style="ellipse;whiteSpace=wrap;html=1;fontSize=16;rotation=105;" vertex="1" parent="1">
          <mxGeometry x="336" y="-35" width="82" height="63" as="geometry" />
        </mxCell>
        <mxCell id="JQ-ArIc0KbyQgQhtLHyV-9" value="" style="ellipse;whiteSpace=wrap;html=1;fontSize=16;rotation=105;" vertex="1" parent="1">
          <mxGeometry x="500" y="35" width="82" height="63" as="geometry" />
        </mxCell>
        <mxCell id="JQ-ArIc0KbyQgQhtLHyV-10" value="" style="ellipse;whiteSpace=wrap;html=1;fontSize=16;rotation=130;" vertex="1" parent="1">
          <mxGeometry x="560" y="89" width="82" height="63" as="geometry" />
        </mxCell>
        <mxCell id="JQ-ArIc0KbyQgQhtLHyV-11" value="用戶帳號" style="text;strokeColor=none;fillColor=none;html=1;align=center;verticalAlign=middle;whiteSpace=wrap;rounded=0;fontSize=16;" vertex="1" parent="1">
          <mxGeometry x="-33.5" y="98" width="45" height="50" as="geometry" />
        </mxCell>
        <mxCell id="JQ-ArIc0KbyQgQhtLHyV-12" value="密碼" style="text;strokeColor=none;fillColor=none;html=1;align=center;verticalAlign=middle;whiteSpace=wrap;rounded=0;fontSize=16;" vertex="1" parent="1">
          <mxGeometry x="27.5" y="51.5" width="37" height="30" as="geometry" />
        </mxCell>
        <mxCell id="JQ-ArIc0KbyQgQhtLHyV-13" value="用戶&lt;br&gt;姓名" style="text;strokeColor=none;fillColor=none;html=1;align=center;verticalAlign=middle;whiteSpace=wrap;rounded=0;fontSize=16;" vertex="1" parent="1">
          <mxGeometry x="104" y="5.5" width="36" height="40" as="geometry" />
        </mxCell>
        <mxCell id="JQ-ArIc0KbyQgQhtLHyV-14" value="頭像" style="text;strokeColor=none;fillColor=none;html=1;align=center;verticalAlign=middle;whiteSpace=wrap;rounded=0;fontSize=16;" vertex="1" parent="1">
          <mxGeometry x="183" y="-21" width="42" height="35" as="geometry" />
        </mxCell>
        <mxCell id="JQ-ArIc0KbyQgQhtLHyV-15" value="性別" style="text;strokeColor=none;fillColor=none;html=1;align=center;verticalAlign=middle;whiteSpace=wrap;rounded=0;fontSize=16;" vertex="1" parent="1">
          <mxGeometry x="267.5" y="-46.5" width="37" height="36" as="geometry" />
        </mxCell>
        <mxCell id="JQ-ArIc0KbyQgQhtLHyV-16" value="年齡" style="text;strokeColor=none;fillColor=none;html=1;align=center;verticalAlign=middle;whiteSpace=wrap;rounded=0;fontSize=16;" vertex="1" parent="1">
          <mxGeometry x="357" y="-21" width="40" height="35" as="geometry" />
        </mxCell>
        <mxCell id="JQ-ArIc0KbyQgQhtLHyV-17" value="手機" style="text;strokeColor=none;fillColor=none;html=1;align=center;verticalAlign=middle;whiteSpace=wrap;rounded=0;fontSize=16;" vertex="1" parent="1">
          <mxGeometry x="436" y="5.5" width="46" height="40" as="geometry" />
        </mxCell>
        <mxCell id="JQ-ArIc0KbyQgQhtLHyV-18" value="地址" style="text;strokeColor=none;fillColor=none;html=1;align=center;verticalAlign=middle;whiteSpace=wrap;rounded=0;fontSize=16;" vertex="1" parent="1">
          <mxGeometry x="519.5" y="46.5" width="43" height="40" as="geometry" />
        </mxCell>
        <mxCell id="JQ-ArIc0KbyQgQhtLHyV-19" value="餘額" style="text;strokeColor=none;fillColor=none;html=1;align=center;verticalAlign=middle;whiteSpace=wrap;rounded=0;fontSize=16;" vertex="1" parent="1">
          <mxGeometry x="580.5" y="103.5" width="41" height="39" as="geometry" />
        </mxCell>
        <mxCell id="JQ-ArIc0KbyQgQhtLHyV-22" value="" style="endArrow=none;html=1;rounded=0;fontSize=12;startSize=8;endSize=8;curved=1;entryX=1;entryY=0.5;entryDx=0;entryDy=0;exitX=0.5;exitY=0;exitDx=0;exitDy=0;" edge="1" parent="1" source="JQ-ArIc0KbyQgQhtLHyV-1" target="JQ-ArIc0KbyQgQhtLHyV-2">
          <mxGeometry width="50" height="50" relative="1" as="geometry">
            <mxPoint x="261" y="137" as="sourcePoint" />
            <mxPoint x="311" y="87" as="targetPoint" />
          </mxGeometry>
        </mxCell>
        <mxCell id="JQ-ArIc0KbyQgQhtLHyV-23" value="" style="endArrow=none;html=1;rounded=0;fontSize=12;startSize=8;endSize=8;curved=1;exitX=1;exitY=0.5;exitDx=0;exitDy=0;entryX=0.5;entryY=0;entryDx=0;entryDy=0;" edge="1" parent="1" source="JQ-ArIc0KbyQgQhtLHyV-3" target="JQ-ArIc0KbyQgQhtLHyV-1">
          <mxGeometry width="50" height="50" relative="1" as="geometry">
            <mxPoint x="261" y="137" as="sourcePoint" />
            <mxPoint x="311" y="87" as="targetPoint" />
          </mxGeometry>
        </mxCell>
        <mxCell id="JQ-ArIc0KbyQgQhtLHyV-24" value="" style="endArrow=none;html=1;rounded=0;fontSize=12;startSize=8;endSize=8;curved=1;exitX=1;exitY=0.5;exitDx=0;exitDy=0;entryX=0.5;entryY=0;entryDx=0;entryDy=0;" edge="1" parent="1" source="JQ-ArIc0KbyQgQhtLHyV-6" target="JQ-ArIc0KbyQgQhtLHyV-1">
          <mxGeometry width="50" height="50" relative="1" as="geometry">
            <mxPoint x="261" y="137" as="sourcePoint" />
            <mxPoint x="307" y="87" as="targetPoint" />
          </mxGeometry>
        </mxCell>
        <mxCell id="JQ-ArIc0KbyQgQhtLHyV-25" value="" style="endArrow=none;html=1;rounded=0;fontSize=12;startSize=8;endSize=8;curved=1;exitX=1;exitY=0.5;exitDx=0;exitDy=0;entryX=0.5;entryY=0;entryDx=0;entryDy=0;" edge="1" parent="1" source="JQ-ArIc0KbyQgQhtLHyV-5" target="JQ-ArIc0KbyQgQhtLHyV-1">
          <mxGeometry width="50" height="50" relative="1" as="geometry">
            <mxPoint x="261" y="137" as="sourcePoint" />
            <mxPoint x="311" y="87" as="targetPoint" />
          </mxGeometry>
        </mxCell>
        <mxCell id="JQ-ArIc0KbyQgQhtLHyV-26" value="" style="endArrow=none;html=1;rounded=0;fontSize=12;startSize=8;endSize=8;curved=1;entryX=1;entryY=0.5;entryDx=0;entryDy=0;exitX=0.5;exitY=0;exitDx=0;exitDy=0;" edge="1" parent="1" source="JQ-ArIc0KbyQgQhtLHyV-1" target="JQ-ArIc0KbyQgQhtLHyV-4">
          <mxGeometry width="50" height="50" relative="1" as="geometry">
            <mxPoint x="261" y="137" as="sourcePoint" />
            <mxPoint x="311" y="87" as="targetPoint" />
          </mxGeometry>
        </mxCell>
        <mxCell id="JQ-ArIc0KbyQgQhtLHyV-27" value="" style="endArrow=none;html=1;rounded=0;fontSize=12;startSize=8;endSize=8;curved=1;entryX=1;entryY=0.5;entryDx=0;entryDy=0;exitX=0.5;exitY=0;exitDx=0;exitDy=0;" edge="1" parent="1" source="JQ-ArIc0KbyQgQhtLHyV-1" target="JQ-ArIc0KbyQgQhtLHyV-8">
          <mxGeometry width="50" height="50" relative="1" as="geometry">
            <mxPoint x="261" y="137" as="sourcePoint" />
            <mxPoint x="311" y="87" as="targetPoint" />
          </mxGeometry>
        </mxCell>
        <mxCell id="JQ-ArIc0KbyQgQhtLHyV-28" value="" style="endArrow=none;html=1;rounded=0;fontSize=12;startSize=8;endSize=8;curved=1;entryX=1;entryY=0.5;entryDx=0;entryDy=0;exitX=0.5;exitY=0;exitDx=0;exitDy=0;" edge="1" parent="1" source="JQ-ArIc0KbyQgQhtLHyV-1" target="JQ-ArIc0KbyQgQhtLHyV-7">
          <mxGeometry width="50" height="50" relative="1" as="geometry">
            <mxPoint x="261" y="137" as="sourcePoint" />
            <mxPoint x="311" y="87" as="targetPoint" />
          </mxGeometry>
        </mxCell>
        <mxCell id="JQ-ArIc0KbyQgQhtLHyV-29" value="" style="endArrow=none;html=1;rounded=0;fontSize=12;startSize=8;endSize=8;curved=1;entryX=1;entryY=0.5;entryDx=0;entryDy=0;exitX=0.5;exitY=0;exitDx=0;exitDy=0;" edge="1" parent="1" source="JQ-ArIc0KbyQgQhtLHyV-1" target="JQ-ArIc0KbyQgQhtLHyV-9">
          <mxGeometry width="50" height="50" relative="1" as="geometry">
            <mxPoint x="261" y="137" as="sourcePoint" />
            <mxPoint x="311" y="87" as="targetPoint" />
          </mxGeometry>
        </mxCell>
        <mxCell id="JQ-ArIc0KbyQgQhtLHyV-30" value="" style="endArrow=none;html=1;rounded=0;fontSize=12;startSize=8;endSize=8;curved=1;entryX=1;entryY=0.5;entryDx=0;entryDy=0;exitX=0.5;exitY=0;exitDx=0;exitDy=0;" edge="1" parent="1" source="JQ-ArIc0KbyQgQhtLHyV-1" target="JQ-ArIc0KbyQgQhtLHyV-10">
          <mxGeometry width="50" height="50" relative="1" as="geometry">
            <mxPoint x="261" y="137" as="sourcePoint" />
            <mxPoint x="311" y="87" as="targetPoint" />
          </mxGeometry>
        </mxCell>
      </root>
    </mxGraphModel>
  </diagram>
</mxfile>
